<svg width="35" height="35" viewBox="0 0 35 35" fill="none" xmlns="http://www.w3.org/2000/svg">
<path d="M33.5368 15.1146L3.76912 0.245628C3.36754 0.0597579 2.9258 -0.0228206 2.48412 0.00540974C2.04243 0.0336401 1.61483 0.171783 1.24023 0.407263C0.865632 0.642743 0.555938 0.968081 0.339341 1.35366C0.122743 1.73924 0.00612121 2.17282 9.00098e-05 2.61492V32.34C-0.00366027 32.7938 0.109841 33.2409 0.329622 33.6381C0.549404 34.0353 0.868035 34.3691 1.25472 34.6074C1.6414 34.8456 2.08305 34.9801 2.53699 34.998C2.99094 35.0158 3.44181 34.9164 3.84604 34.7093L33.5368 19.8403C33.9766 19.6198 34.3464 19.2814 34.6048 18.863C34.8632 18.4446 35 17.9627 35 17.471C35 16.9794 34.8632 16.4975 34.6048 16.0791C34.3464 15.6607 33.9766 15.3223 33.5368 15.1018V15.1146Z" fill="#4AA2C0"/>
<path d="M23.9549 15.7961L2.69223 5.17545C2.40539 5.04268 2.08986 4.9837 1.77437 5.00386C1.45888 5.02403 1.15345 5.1227 0.885878 5.2909C0.618308 5.4591 0.397099 5.69149 0.242386 5.9669C0.0876739 6.24232 0.00437229 6.55201 6.42927e-05 6.8678V28.1C-0.00261448 28.4241 0.0784575 28.7435 0.235445 29.0272C0.392432 29.3109 0.620025 29.5494 0.896226 29.7195C1.17243 29.8897 1.48789 29.9858 1.81214 29.9985C2.13638 30.0113 2.45844 29.9403 2.74717 29.7923L23.9549 19.1717C24.269 19.0141 24.5331 18.7724 24.7177 18.4736C24.9023 18.1747 25 17.8305 25 17.4793C25 17.1282 24.9023 16.7839 24.7177 16.4851C24.5331 16.1862 24.269 15.9445 23.9549 15.787V15.7961Z" fill="#003366"/>
</svg>
