<svg width="132" height="39" viewBox="0 0 132 39" fill="none" xmlns="http://www.w3.org/2000/svg">
<path d="M49.1728 14.0578C49.1728 13.8305 49.1994 13.6767 49.2526 13.5965C49.3192 13.5029 49.4323 13.4561 49.5921 13.4561C49.7651 13.4561 50.0579 13.6366 50.4706 13.9977C50.8832 14.3587 51.1029 14.6796 51.1295 14.9604C51.1827 15.4418 51.4356 16.2975 51.8882 17.5277C52.3408 18.7445 52.8599 19.9814 53.4456 21.2383C54.191 20.3558 55.1294 19.1858 56.2608 17.7283C57.3923 16.2574 58.2309 15.2145 58.7766 14.5994C59.3224 13.9843 59.715 13.6767 59.9546 13.6767C60.1942 13.6767 60.4471 13.8105 60.7133 14.0779C60.9796 14.3453 61.1127 14.5994 61.1127 14.8401C61.1127 15.0807 61.086 15.3549 61.0328 15.6624C60.9796 15.9699 60.8864 16.3778 60.7533 16.8859C60.6335 17.3806 60.5203 17.8152 60.4138 18.1896C60.3207 18.5506 60.1609 19.1189 59.9347 19.8945C59.7084 20.67 59.5353 21.2918 59.4155 21.7598C59.2957 22.2144 59.156 22.776 58.9962 23.4446C58.8365 24.0998 58.7034 24.6413 58.5969 25.0692C58.5037 25.4837 58.4039 25.8915 58.2974 26.2927C58.0977 27.0682 57.9047 27.456 57.7184 27.456C57.5453 27.456 57.3723 27.2955 57.1993 26.9746C57.0262 26.6537 56.9397 26.2258 56.9397 25.691C56.9397 25.1427 57.166 23.8992 57.6186 21.9603C58.0844 20.0215 58.5836 18.3233 59.116 16.8658C56.6668 19.9413 55.156 21.7798 54.5837 22.3815C54.0246 22.9833 53.5587 23.2841 53.186 23.2841C52.8266 23.2841 52.4872 23.0769 52.1677 22.6623C51.6885 21.967 51.043 20.3223 50.231 17.7283C50.0047 19.1323 49.7518 20.3357 49.4723 21.3386C49.206 22.3281 49.0263 22.9899 48.9332 23.3242C48.8533 23.6451 48.7801 23.9126 48.7135 24.1265C48.6603 24.3405 48.5937 24.5945 48.5139 24.8887C48.434 25.1695 48.3608 25.4035 48.2942 25.5907C48.241 25.7779 48.1811 25.9851 48.1146 26.2125C48.048 26.4264 47.9881 26.6002 47.9349 26.7339C47.8949 26.8677 47.8483 26.9947 47.7951 27.115C47.6886 27.3423 47.6087 27.456 47.5555 27.456C47.3958 27.456 47.1961 27.2822 46.9565 26.9345C46.7169 26.5869 46.5971 26.2526 46.5971 25.9317C46.5971 25.6107 47.0231 23.7655 47.875 20.3959C48.7402 17.0263 49.1728 14.9136 49.1728 14.0578ZM67.1637 17.6079C67.7627 17.6079 68.3151 17.9155 68.8209 18.5306C69.3267 19.1323 69.5796 19.6805 69.5796 20.1753C69.5796 20.6566 69.4133 21.1514 69.0805 21.6595C69.2402 21.8601 69.3201 22.0339 69.3201 22.181C69.3201 22.5554 69.2336 23.1972 69.0605 24.1065C68.9008 25.0157 68.801 25.6107 68.761 25.8915C68.7344 26.1723 68.7078 26.3997 68.6812 26.5735C68.6545 26.7339 68.6213 26.8944 68.5813 27.0549C68.5281 27.3891 68.4083 27.5563 68.2219 27.5563C67.9823 27.5563 67.7827 27.349 67.6229 26.9345C67.4765 26.5066 67.39 25.9584 67.3634 25.2898C66.1787 26.8008 65.0805 27.5563 64.0689 27.5563C63.4566 27.5563 62.851 27.2955 62.252 26.7741C61.6663 26.2392 61.3735 25.691 61.3735 25.1294C61.3735 24.3271 61.6663 23.3376 62.252 22.1609C62.8377 20.9709 63.5964 19.9145 64.5281 18.9919C65.4599 18.0693 66.3384 17.6079 67.1637 17.6079ZM68.0822 21.138C68.0822 19.8945 67.8359 19.2727 67.3434 19.2727C66.8243 19.2727 66.2186 19.6471 65.5265 20.3959C64.8343 21.1313 64.2486 21.967 63.7694 22.903C63.2902 23.839 63.0506 24.5811 63.0506 25.1294C63.0506 25.3567 63.1438 25.5439 63.3302 25.691C63.5165 25.8247 63.7361 25.8915 63.989 25.8915C64.6147 25.8915 65.3201 25.4703 66.1055 24.6279C66.8908 23.7722 67.4366 22.7359 67.7427 21.5191C67.7827 21.3185 67.8958 21.1982 68.0822 21.1581V21.138ZM72.0704 27.5563C71.8841 27.5563 71.6645 27.4159 71.4116 27.1351C71.1586 26.8409 71.0322 26.5668 71.0322 26.3127C71.0322 26.0587 71.2385 25.1895 71.6511 23.7053C72.0771 22.2211 72.4964 20.436 72.909 18.3501C73.335 16.2507 73.548 14.3319 73.548 12.5937C73.548 12.1925 73.6944 11.9919 73.9872 11.9919C74.2002 11.9919 74.4598 12.1925 74.7659 12.5937C75.0721 12.9814 75.2251 13.3625 75.2251 13.7369C75.2251 15.3816 74.8657 17.7283 74.1469 20.777C75.7309 18.6242 77.1685 17.5478 78.4597 17.5478C79.0853 17.5478 79.6111 17.8553 80.037 18.4704C80.4763 19.0855 80.6959 19.8209 80.6959 20.6767C80.6959 21.5191 80.4497 22.4885 79.9572 23.585C79.478 24.6814 78.8257 25.6241 78.0005 26.413C77.1752 27.1886 76.31 27.5763 75.4048 27.5763C74.4997 27.5763 73.6079 27.115 72.7293 26.1924L72.7094 26.2125C72.4165 27.1083 72.2036 27.5563 72.0704 27.5563ZM75.2451 26.0119C76.1103 26.0119 76.9556 25.4235 77.7808 24.2469C78.6194 23.0568 79.0387 21.8066 79.0387 20.4962C79.0387 19.7073 78.7991 19.3128 78.3199 19.3128C77.5479 19.3128 76.6827 19.8543 75.7243 20.9374C74.7792 22.0205 73.9606 23.3109 73.2684 24.8085C73.894 25.6107 74.5529 26.0119 75.2451 26.0119ZM87.0132 17.6079C87.6122 17.6079 88.1646 17.9155 88.6704 18.5306C89.1762 19.1323 89.4291 19.6805 89.4291 20.1753C89.4291 20.6566 89.2627 21.1514 88.93 21.6595C89.0897 21.8601 89.1696 22.0339 89.1696 22.181C89.1696 22.5554 89.083 23.1972 88.91 24.1065C88.7503 25.0157 88.6504 25.6107 88.6105 25.8915C88.5839 26.1723 88.5572 26.3997 88.5306 26.5735C88.504 26.7339 88.4707 26.8944 88.4308 27.0549C88.3776 27.3891 88.2577 27.5563 88.0714 27.5563C87.8318 27.5563 87.6321 27.349 87.4724 26.9345C87.326 26.5066 87.2395 25.9584 87.2128 25.2898C86.0282 26.8008 84.93 27.5563 83.9184 27.5563C83.3061 27.5563 82.7004 27.2955 82.1015 26.7741C81.5158 26.2392 81.2229 25.691 81.2229 25.1294C81.2229 24.3271 81.5158 23.3376 82.1015 22.1609C82.6871 20.9709 83.4459 19.9145 84.3776 18.9919C85.3094 18.0693 86.1879 17.6079 87.0132 17.6079ZM87.9316 21.138C87.9316 19.8945 87.6854 19.2727 87.1929 19.2727C86.6737 19.2727 86.0681 19.6471 85.3759 20.3959C84.6838 21.1313 84.0981 21.967 83.6189 22.903C83.1397 23.839 82.9001 24.5811 82.9001 25.1294C82.9001 25.3567 82.9933 25.5439 83.1796 25.691C83.366 25.8247 83.5856 25.8915 83.8385 25.8915C84.4641 25.8915 85.1696 25.4703 85.955 24.6279C86.7403 23.7722 87.2861 22.7359 87.5922 21.5191C87.6321 21.3185 87.7453 21.1982 87.9316 21.1581V21.138ZM96.7718 17.6079C97.2243 17.6079 97.6503 17.862 98.0496 18.3701C98.4489 18.8649 98.6486 19.2994 98.6486 19.6738C98.6486 19.9011 98.5421 20.0148 98.3291 20.0148C98.1827 20.0148 97.9564 19.9011 97.6503 19.6738C97.3441 19.4331 97.0313 19.3128 96.7119 19.3128C96.3924 19.3128 95.8866 19.5 95.1944 19.8744C94.5155 20.2488 94.1761 20.6433 94.1761 21.0578C94.1761 21.3653 94.7884 21.8935 96.013 22.6423C96.4789 22.9365 96.8982 23.3175 97.2709 23.7855C97.6569 24.2402 97.8499 24.7349 97.8499 25.2698C97.8499 25.7913 97.4839 26.3061 96.7518 26.8142C96.033 27.3089 95.1878 27.5563 94.2161 27.5563C93.2577 27.5563 92.4058 27.3223 91.6604 26.8543C90.9283 26.3863 90.5622 25.945 90.5622 25.5305C90.5622 25.3567 90.6021 25.223 90.682 25.1294C90.7752 25.0224 90.8883 24.9689 91.0214 24.9689C91.1545 24.9689 91.3409 25.0558 91.5805 25.2297C92.2993 25.7511 93.0447 26.0119 93.8167 26.0119C94.6021 26.0119 95.1678 25.925 95.5139 25.7511C95.86 25.5639 96.033 25.3233 96.033 25.0291C96.033 24.7215 95.84 24.4006 95.454 24.0663C95.068 23.7187 94.642 23.4111 94.1761 23.1437C93.7235 22.8763 93.3043 22.5487 92.9182 22.1609C92.5322 21.7731 92.3392 21.3787 92.3392 20.9775C92.3392 20.2689 92.8916 19.5334 93.9964 18.7713C95.1145 17.9957 96.0397 17.6079 96.7718 17.6079ZM104.874 17.6079C105.473 17.6079 106.025 17.9155 106.531 18.5306C107.037 19.1323 107.29 19.6805 107.29 20.1753C107.29 20.6566 107.123 21.1514 106.79 21.6595C106.95 21.8601 107.03 22.0339 107.03 22.181C107.03 22.5554 106.944 23.1972 106.77 24.1065C106.611 25.0157 106.511 25.6107 106.471 25.8915C106.444 26.1723 106.418 26.3997 106.391 26.5735C106.364 26.7339 106.331 26.8944 106.291 27.0549C106.238 27.3891 106.118 27.5563 105.932 27.5563C105.692 27.5563 105.493 27.349 105.333 26.9345C105.186 26.5066 105.1 25.9584 105.073 25.2898C103.889 26.8008 102.791 27.5563 101.779 27.5563C101.167 27.5563 100.561 27.2955 99.9619 26.7741C99.3763 26.2392 99.0834 25.691 99.0834 25.1294C99.0834 24.3271 99.3763 23.3376 99.9619 22.1609C100.548 20.9709 101.306 19.9145 102.238 18.9919C103.17 18.0693 104.048 17.6079 104.874 17.6079ZM105.792 21.138C105.792 19.8945 105.546 19.2727 105.053 19.2727C104.534 19.2727 103.929 19.6471 103.236 20.3959C102.544 21.1313 101.959 21.967 101.479 22.903C101 23.839 100.761 24.5811 100.761 25.1294C100.761 25.3567 100.854 25.5439 101.04 25.691C101.226 25.8247 101.446 25.8915 101.699 25.8915C102.325 25.8915 103.03 25.4703 103.815 24.6279C104.601 23.7722 105.147 22.7359 105.453 21.5191C105.493 21.3185 105.606 21.1982 105.792 21.1581V21.138ZM127.538 14.2183C127.564 13.6433 127.697 13.3558 127.937 13.3558C128.19 13.3558 128.463 13.5096 128.755 13.8171C129.048 14.1247 129.195 14.3988 129.195 14.6395C129.195 15.7359 129.022 17.2937 128.676 19.3128C128.343 21.3319 127.89 23.2039 127.318 24.9288C126.759 26.6537 126.226 27.5162 125.721 27.5162C125.548 27.5162 125.348 27.4293 125.122 27.2554C124.909 27.0816 124.742 26.8677 124.622 26.6136C124.223 25.6776 123.045 22.7091 121.088 17.7082C120.689 19.2593 120.243 21.0177 119.751 22.9833C119.271 24.9355 118.952 26.179 118.792 26.7139C118.633 27.2487 118.493 27.5162 118.373 27.5162C118.2 27.5162 117.987 27.3691 117.734 27.0749C117.494 26.7674 117.375 26.4531 117.375 26.1322C117.375 25.8113 117.807 23.9326 118.672 20.4962C119.538 17.0463 119.984 14.8935 120.01 14.0378C120.01 13.6099 120.123 13.3959 120.35 13.3959C120.496 13.3959 120.696 13.523 120.949 13.777C121.215 14.0177 121.408 14.2851 121.528 14.5793C123.671 20.1686 125.028 23.5917 125.601 24.8486C126.466 22.5487 127.045 19.8009 127.338 16.6051C127.471 15.1342 127.538 14.3386 127.538 14.2183Z" fill="#00325B"/>
<path fill-rule="evenodd" clip-rule="evenodd" d="M38.8235 19.5C38.8235 30.2696 30.1326 39 19.4118 39C16.4737 39 13.6882 38.3444 11.1922 37.1707C10.9411 25.591 11.1817 18.9656 11.7198 15.7024C11.82 15.0947 11.9258 14.6351 12.0293 14.2984C12.0783 14.3783 12.1308 14.4682 12.1865 14.5691C13.175 16.3597 14.3612 20.036 15.574 24.18C16.01 25.6696 16.4473 27.2117 16.8756 28.7217V28.7219C17.6161 31.3327 18.3291 33.8472 18.9605 35.8267L21.1245 35.5457L20.0169 35.4868C21.1245 35.5457 21.1245 35.5455 21.1245 35.5452L21.1247 35.5432L21.1251 35.5349L21.1269 35.5019L21.1339 35.3714C21.1402 35.2564 21.1496 35.0861 21.162 34.8656C21.187 34.4247 21.224 33.7834 21.273 32.9829C21.3707 31.3816 21.5152 29.1443 21.7026 26.6002C22.0778 21.5056 22.6228 15.2067 23.3037 10.3255C23.6455 7.87458 24.0148 5.83293 24.4005 4.4883C24.4209 4.41691 24.4412 4.3486 24.461 4.28331C24.6406 4.86681 24.8326 5.65347 25.0336 6.67726C25.5385 9.24965 26.0721 13.1753 26.6273 18.8041L26.7367 19.9131L28.9443 19.6933L28.8349 18.5844C28.2775 12.9335 27.7358 8.92412 27.2102 6.24623C26.9482 4.91121 26.6834 3.87085 26.4098 3.11058C26.2731 2.73107 26.1231 2.3897 25.9523 2.10543C25.7918 1.83842 25.5552 1.52292 25.2031 1.31861C24.7824 1.07456 24.283 1.04236 23.829 1.25843C23.4521 1.43779 23.2037 1.74212 23.0473 1.9775C22.728 2.45809 22.4785 3.13969 22.2686 3.87135C21.8372 5.37582 21.4509 7.54817 21.1066 10.0162C20.4152 14.9731 19.866 21.3321 19.4902 26.4359C19.4204 27.3825 19.3566 28.2867 19.299 29.1319L19.026 28.1697L19.0257 28.1688C18.5954 26.6511 18.152 25.0874 17.7024 23.5514C16.5114 19.4822 15.2593 15.5399 14.1266 13.4882C13.8429 12.9744 13.5164 12.4828 13.1357 12.1385C12.7592 11.7981 12.0731 11.3961 11.2742 11.7355C10.6247 12.0116 10.2827 12.648 10.0826 13.147C9.8577 13.7077 9.67874 14.443 9.53112 15.3383C8.9766 18.7013 8.74148 25.1461 8.94783 35.9271C3.56624 32.4607 0 26.3988 0 19.5C0 8.73045 8.69095 0 19.4118 0C30.1326 0 38.8235 8.73045 38.8235 19.5ZM32.1681 26.1857C32.1681 27.7242 30.9265 28.9714 29.395 28.9714C27.8634 28.9714 26.6218 27.7242 26.6218 26.1857C26.6218 24.6472 27.8634 23.4 29.395 23.4C30.9265 23.4 32.1681 24.6472 32.1681 26.1857ZM24.9244 3.17174C24.9245 3.17189 24.9226 3.17421 24.9187 3.17821C24.9225 3.17357 24.9244 3.17158 24.9244 3.17174Z" fill="#008CFF"/>
</svg>
